<mxfile host="Electron" modified="2024-05-14T10:17:20.221Z" agent="Mozilla/5.0 (Windows NT 10.0; Win64; x64) AppleWebKit/537.36 (KHTML, like Gecko) draw.io/22.0.3 Chrome/114.0.5735.289 Electron/25.8.4 Safari/537.36" etag="qbkB53wF3cUUSJOwofKe" version="22.0.3" type="device">
  <diagram name="Crossy Road Activity Diagram" id="mzTvzYQNDdbLBxiP-pPE">
    <mxGraphModel dx="1900" dy="621" grid="1" gridSize="10" guides="1" tooltips="1" connect="1" arrows="1" fold="1" page="1" pageScale="1" pageWidth="850" pageHeight="1100" math="0" shadow="0">
      <root>
        <mxCell id="0" />
        <mxCell id="1" parent="0" />
        <mxCell id="VAIVp-r6BgcPC4kNFU6i-26" value="" style="rounded=0;whiteSpace=wrap;html=1;fillColor=none;" parent="1" vertex="1">
          <mxGeometry x="-670" y="120" width="600" height="680" as="geometry" />
        </mxCell>
        <mxCell id="SOC8IXd18K2EN3CSP1b0-9" style="edgeStyle=orthogonalEdgeStyle;rounded=0;orthogonalLoop=1;jettySize=auto;html=1;exitX=0;exitY=0.5;exitDx=0;exitDy=0;entryX=0;entryY=0.5;entryDx=0;entryDy=0;" parent="1" edge="1">
          <mxGeometry relative="1" as="geometry">
            <mxPoint x="-490.0000000000002" y="225" as="targetPoint" />
            <Array as="points">
              <mxPoint x="-560" y="330" />
              <mxPoint x="-560" y="225" />
            </Array>
          </mxGeometry>
        </mxCell>
        <mxCell id="VAIVp-r6BgcPC4kNFU6i-24" value="" style="edgeStyle=orthogonalEdgeStyle;rounded=0;orthogonalLoop=1;jettySize=auto;html=1;" parent="1" source="fGM9hHxwiCl-OO4MZ3ix-4" target="VAIVp-r6BgcPC4kNFU6i-3" edge="1">
          <mxGeometry relative="1" as="geometry" />
        </mxCell>
        <mxCell id="fGM9hHxwiCl-OO4MZ3ix-4" value="Utilisateur" style="shape=umlActor;verticalLabelPosition=bottom;verticalAlign=top;html=1;outlineConnect=0;" parent="1" vertex="1">
          <mxGeometry x="-760" y="410" width="30" height="60" as="geometry" />
        </mxCell>
        <mxCell id="VAIVp-r6BgcPC4kNFU6i-3" value="Menu principal" style="ellipse;whiteSpace=wrap;html=1;fontSize=15;" parent="1" vertex="1">
          <mxGeometry x="-640" y="400" width="120" height="80" as="geometry" />
        </mxCell>
        <mxCell id="VAIVp-r6BgcPC4kNFU6i-20" style="orthogonalLoop=1;jettySize=auto;html=1;exitX=0;exitY=0.5;exitDx=0;exitDy=0;entryX=0.5;entryY=0;entryDx=0;entryDy=0;" parent="1" source="VAIVp-r6BgcPC4kNFU6i-4" target="VAIVp-r6BgcPC4kNFU6i-3" edge="1">
          <mxGeometry relative="1" as="geometry" />
        </mxCell>
        <mxCell id="VAIVp-r6BgcPC4kNFU6i-4" value="Démarrer une partie" style="ellipse;whiteSpace=wrap;html=1;fontSize=15;" parent="1" vertex="1">
          <mxGeometry x="-480" y="220" width="120" height="80" as="geometry" />
        </mxCell>
        <mxCell id="VAIVp-r6BgcPC4kNFU6i-23" style="orthogonalLoop=1;jettySize=auto;html=1;exitX=0;exitY=0.5;exitDx=0;exitDy=0;entryX=1;entryY=0;entryDx=0;entryDy=0;rounded=1;" parent="1" source="VAIVp-r6BgcPC4kNFU6i-5" target="VAIVp-r6BgcPC4kNFU6i-3" edge="1">
          <mxGeometry relative="1" as="geometry" />
        </mxCell>
        <mxCell id="VAIVp-r6BgcPC4kNFU6i-5" value="Voir le tableau des scores" style="ellipse;whiteSpace=wrap;html=1;fontSize=15;" parent="1" vertex="1">
          <mxGeometry x="-480" y="340" width="120" height="80" as="geometry" />
        </mxCell>
        <mxCell id="VAIVp-r6BgcPC4kNFU6i-22" style="orthogonalLoop=1;jettySize=auto;html=1;exitX=0;exitY=0.5;exitDx=0;exitDy=0;entryX=1;entryY=1;entryDx=0;entryDy=0;rounded=1;" parent="1" source="VAIVp-r6BgcPC4kNFU6i-6" target="VAIVp-r6BgcPC4kNFU6i-3" edge="1">
          <mxGeometry relative="1" as="geometry" />
        </mxCell>
        <mxCell id="VAIVp-r6BgcPC4kNFU6i-6" value="Choisir son personnage" style="ellipse;whiteSpace=wrap;html=1;fontSize=15;" parent="1" vertex="1">
          <mxGeometry x="-480" y="460" width="120" height="80" as="geometry" />
        </mxCell>
        <mxCell id="VAIVp-r6BgcPC4kNFU6i-21" style="orthogonalLoop=1;jettySize=auto;html=1;exitX=0;exitY=0.5;exitDx=0;exitDy=0;entryX=0.5;entryY=1;entryDx=0;entryDy=0;rounded=1;" parent="1" source="VAIVp-r6BgcPC4kNFU6i-7" target="VAIVp-r6BgcPC4kNFU6i-3" edge="1">
          <mxGeometry relative="1" as="geometry" />
        </mxCell>
        <mxCell id="VAIVp-r6BgcPC4kNFU6i-7" value="Accéder aux réglages" style="ellipse;whiteSpace=wrap;html=1;fontSize=15;" parent="1" vertex="1">
          <mxGeometry x="-480" y="580" width="120" height="80" as="geometry" />
        </mxCell>
        <mxCell id="VAIVp-r6BgcPC4kNFU6i-16" style="orthogonalLoop=1;jettySize=auto;html=1;exitX=0;exitY=0.5;exitDx=0;exitDy=0;entryX=1;entryY=0.5;entryDx=0;entryDy=0;rounded=1;" parent="1" source="VAIVp-r6BgcPC4kNFU6i-8" target="VAIVp-r6BgcPC4kNFU6i-7" edge="1">
          <mxGeometry relative="1" as="geometry" />
        </mxCell>
        <mxCell id="VAIVp-r6BgcPC4kNFU6i-8" value="Modifier le volume" style="ellipse;whiteSpace=wrap;html=1;fontSize=15;" parent="1" vertex="1">
          <mxGeometry x="-280" y="580" width="120" height="80" as="geometry" />
        </mxCell>
        <mxCell id="VAIVp-r6BgcPC4kNFU6i-15" style="orthogonalLoop=1;jettySize=auto;html=1;exitX=0;exitY=0.5;exitDx=0;exitDy=0;entryX=0.5;entryY=1;entryDx=0;entryDy=0;rounded=1;" parent="1" source="VAIVp-r6BgcPC4kNFU6i-9" target="VAIVp-r6BgcPC4kNFU6i-7" edge="1">
          <mxGeometry relative="1" as="geometry" />
        </mxCell>
        <mxCell id="VAIVp-r6BgcPC4kNFU6i-9" value="Choisir la difficulté" style="ellipse;whiteSpace=wrap;html=1;fontSize=15;" parent="1" vertex="1">
          <mxGeometry x="-280" y="690" width="120" height="80" as="geometry" />
        </mxCell>
        <mxCell id="VAIVp-r6BgcPC4kNFU6i-18" style="orthogonalLoop=1;jettySize=auto;html=1;exitX=0;exitY=0.5;exitDx=0;exitDy=0;entryX=0.5;entryY=0;entryDx=0;entryDy=0;rounded=1;" parent="1" source="VAIVp-r6BgcPC4kNFU6i-10" target="VAIVp-r6BgcPC4kNFU6i-6" edge="1">
          <mxGeometry relative="1" as="geometry" />
        </mxCell>
        <mxCell id="VAIVp-r6BgcPC4kNFU6i-10" value="Acheter un skin" style="ellipse;whiteSpace=wrap;html=1;fontSize=15;" parent="1" vertex="1">
          <mxGeometry x="-280" y="360" width="120" height="80" as="geometry" />
        </mxCell>
        <mxCell id="VAIVp-r6BgcPC4kNFU6i-17" style="orthogonalLoop=1;jettySize=auto;html=1;exitX=0;exitY=0.5;exitDx=0;exitDy=0;entryX=1;entryY=0.5;entryDx=0;entryDy=0;rounded=1;" parent="1" source="VAIVp-r6BgcPC4kNFU6i-11" target="VAIVp-r6BgcPC4kNFU6i-6" edge="1">
          <mxGeometry relative="1" as="geometry" />
        </mxCell>
        <mxCell id="VAIVp-r6BgcPC4kNFU6i-11" value="Choisir un skin" style="ellipse;whiteSpace=wrap;html=1;fontSize=15;" parent="1" vertex="1">
          <mxGeometry x="-280" y="470" width="120" height="80" as="geometry" />
        </mxCell>
        <mxCell id="VAIVp-r6BgcPC4kNFU6i-19" style="orthogonalLoop=1;jettySize=auto;html=1;exitX=0;exitY=0.5;exitDx=0;exitDy=0;entryX=0.5;entryY=0;entryDx=0;entryDy=0;rounded=1;" parent="1" source="VAIVp-r6BgcPC4kNFU6i-14" target="VAIVp-r6BgcPC4kNFU6i-4" edge="1">
          <mxGeometry relative="1" as="geometry" />
        </mxCell>
        <mxCell id="VAIVp-r6BgcPC4kNFU6i-14" value="Mettre en pause" style="ellipse;whiteSpace=wrap;html=1;fontSize=15;" parent="1" vertex="1">
          <mxGeometry x="-280" y="140" width="120" height="80" as="geometry" />
        </mxCell>
      </root>
    </mxGraphModel>
  </diagram>
</mxfile>
